<?xml version="1.0" encoding="UTF-8"?>
<svg version="1.1" xmlns="http://www.w3.org/2000/svg" width="200" height="198">
<path d="M0 0 C18.26511705 16.38317036 31.23744164 39.83143881 32.64477539 64.66943359 C33.46770446 88.61205094 29.69724779 110.28627257 15.50219727 130.15307617 C14.96981445 130.9084668 14.43743164 131.66385742 13.88891602 132.44213867 C1.89561402 148.64311464 -14.32781517 160.76308032 -33.49780273 167.15307617 C-31.84780273 167.48307617 -30.19780273 167.81307617 -28.49780273 168.15307617 C-28.49780273 168.81307617 -28.49780273 169.47307617 -28.49780273 170.15307617 C-27.57999023 170.14147461 -26.66217773 170.12987305 -25.71655273 170.11791992 C-12.28093526 170.01912862 -12.28093526 170.01912862 -6.49780273 171.15307617 C-6.16780273 171.81307617 -5.83780273 172.47307617 -5.49780273 173.15307617 C-45.09780273 173.15307617 -84.69780273 173.15307617 -125.49780273 173.15307617 C-125.16780273 172.49307617 -124.83780273 171.83307617 -124.49780273 171.15307617 C-117.23930622 169.72984156 -109.86550226 170.05994514 -102.49780273 170.15307617 C-102.49780273 169.49307617 -102.49780273 168.83307617 -102.49780273 168.15307617 C-101.17780273 167.82307617 -99.85780273 167.49307617 -98.49780273 167.15307617 C-99.04194824 166.8961499 -99.58609375 166.63922363 -100.14672852 166.37451172 C-102.63908227 165.19722831 -105.13094561 164.01891037 -107.62280273 162.84057617 C-108.90670898 162.23439453 -108.90670898 162.23439453 -110.21655273 161.6159668 C-111.89318889 160.82278892 -113.56803816 160.02582151 -115.2409668 159.22485352 C-117.08347895 158.34983963 -118.94101898 157.50652894 -120.80249023 156.67260742 C-123.97680154 154.88303192 -126.00372521 152.80964663 -128.49780273 150.15307617 C-129.643574 149.05510187 -130.79504214 147.96305384 -131.95092773 146.87573242 C-149.72097827 129.86695616 -163.11097547 107.3969712 -164.44311523 82.20385742 C-164.46116211 81.19709961 -164.47920898 80.1903418 -164.49780273 79.15307617 C-164.51681641 78.42910645 -164.53583008 77.70513672 -164.55541992 76.95922852 C-164.61664482 74.4404763 -164.65529665 71.92238665 -164.68530273 69.40307617 C-164.70524292 68.19566772 -164.70524292 68.19566772 -164.72558594 66.96386719 C-164.73124476 61.9959387 -164.07376943 57.91392331 -162.49780273 53.15307617 C-162.16522461 51.95811523 -161.83264648 50.7631543 -161.48999023 49.53198242 C-155.60978194 29.44469745 -145.61098728 11.88026993 -129.49780273 -1.84692383 C-128.83780273 -1.84692383 -128.17780273 -1.84692383 -127.49780273 -1.84692383 C-127.49780273 -2.50692383 -127.49780273 -3.16692383 -127.49780273 -3.84692383 C-125.00101037 -5.86228739 -122.17782341 -7.43776924 -119.43530273 -9.09692383 C-118.61908447 -9.5912793 -117.80286621 -10.08563477 -116.96191406 -10.5949707 C-79.25002189 -32.91777085 -32.9467364 -28.61463957 0 0 Z M-43.49780273 169.15307617 C-39.49780273 170.15307617 -39.49780273 170.15307617 -39.49780273 170.15307617 Z M-87.49780273 170.15307617 C-87.49780273 170.48307617 -87.49780273 170.81307617 -87.49780273 171.15307617 C-85.84780273 171.15307617 -84.19780273 171.15307617 -82.49780273 171.15307617 C-82.49780273 170.82307617 -82.49780273 170.49307617 -82.49780273 170.15307617 C-84.14780273 170.15307617 -85.79780273 170.15307617 -87.49780273 170.15307617 Z M-48.49780273 170.15307617 C-48.49780273 170.48307617 -48.49780273 170.81307617 -48.49780273 171.15307617 C-46.84780273 171.15307617 -45.19780273 171.15307617 -43.49780273 171.15307617 C-43.49780273 170.82307617 -43.49780273 170.49307617 -43.49780273 170.15307617 C-45.14780273 170.15307617 -46.79780273 170.15307617 -48.49780273 170.15307617 Z M-81.49780273 171.15307617 C-77.49780273 172.15307617 -77.49780273 172.15307617 -77.49780273 172.15307617 Z M-54.49780273 171.15307617 C-54.49780273 171.48307617 -54.49780273 171.81307617 -54.49780273 172.15307617 C-52.84780273 172.15307617 -51.19780273 172.15307617 -49.49780273 172.15307617 C-49.49780273 171.82307617 -49.49780273 171.49307617 -49.49780273 171.15307617 C-51.14780273 171.15307617 -52.79780273 171.15307617 -54.49780273 171.15307617 Z " fill="#020202" transform="translate(165.497802734375,24.846923828125)"/>
<path d="M0 0 C11.16429903 9.23286512 19.12111792 21.21303325 25.0625 34.3125 C25.49320801 35.24388794 25.49320801 35.24388794 25.93261719 36.1940918 C28.29796785 41.75295824 28.34930498 45.49304981 29 52 C-29.74 52 -88.48 52 -149 52 C-149 36.1186029 -139.40771923 20.602952 -129 9 C-128.18789062 8.09378906 -127.37578125 7.18757813 -126.5390625 6.25390625 C-92.09027032 -30.16483153 -37.9532652 -30.15550021 0 0 Z " fill="#038E7B" transform="translate(160,29)"/>
<path d="M0 0 C58.74 0 117.48 0 178 0 C174.58832631 17.05836843 167.75541393 31.12502284 156 44 C155.34128906 44.72832031 154.68257812 45.45664063 154.00390625 46.20703125 C138.98838241 62.00807545 115.62660345 72.53999266 93.8984375 73.203125 C67.01596317 73.58539761 44.56815546 66.01204447 25 47 C24.38769531 46.44957031 23.77539062 45.89914063 23.14453125 45.33203125 C12.18158483 35.17186351 2.89636737 19.65968399 0 5 C0 3.35 0 1.7 0 0 Z " fill="#498CCC" transform="translate(11,117)"/>
<path d="M0 0 C0 24.09 0 48.18 0 73 C-29.37 73 -58.74 73 -89 73 C-89 57.1186029 -79.40771923 41.602952 -69 30 C-68.18789062 29.09378906 -67.37578125 28.18757813 -66.5390625 27.25390625 C-48.55620071 8.24269899 -25.82934179 0 0 0 Z " fill="#1BB8A7" transform="translate(100,8)"/>
<path d="M0 0 C29.37 0 58.74 0 89 0 C84.3630038 18.54798478 84.3630038 18.54798478 80.8125 24.3125 C80.42521729 24.96927734 80.03793457 25.62605469 79.63891602 26.30273438 C75.98592663 32.33868534 71.75320852 37.78680356 67 43 C66.34257812 43.72703125 65.68515625 44.4540625 65.0078125 45.203125 C52.6144774 58.24350169 35.21227111 66.48530594 18 71 C12.06 71 6.12 71 0 71 C0 47.57 0 24.14 0 0 Z " fill="#56C8CD" transform="translate(100,118)"/>
<path d="M0 0 C18.26511705 16.38317036 31.23744164 39.83143881 32.64477539 64.66943359 C33.46770446 88.61205094 29.69724779 110.28627257 15.50219727 130.15307617 C14.96981445 130.9084668 14.43743164 131.66385742 13.88891602 132.44213867 C1.89561402 148.64311464 -14.32781517 160.76308032 -33.49780273 167.15307617 C-31.84780273 167.48307617 -30.19780273 167.81307617 -28.49780273 168.15307617 C-28.49780273 168.81307617 -28.49780273 169.47307617 -28.49780273 170.15307617 C-27.57999023 170.14147461 -26.66217773 170.12987305 -25.71655273 170.11791992 C-12.28093526 170.01912862 -12.28093526 170.01912862 -6.49780273 171.15307617 C-6.16780273 171.81307617 -5.83780273 172.47307617 -5.49780273 173.15307617 C-45.09780273 173.15307617 -84.69780273 173.15307617 -125.49780273 173.15307617 C-125.16780273 172.49307617 -124.83780273 171.83307617 -124.49780273 171.15307617 C-117.23930622 169.72984156 -109.86550226 170.05994514 -102.49780273 170.15307617 C-102.49780273 169.49307617 -102.49780273 168.83307617 -102.49780273 168.15307617 C-101.17780273 167.82307617 -99.85780273 167.49307617 -98.49780273 167.15307617 C-99.04194824 166.8961499 -99.58609375 166.63922363 -100.14672852 166.37451172 C-102.63908227 165.19722831 -105.13094561 164.01891037 -107.62280273 162.84057617 C-108.90670898 162.23439453 -108.90670898 162.23439453 -110.21655273 161.6159668 C-111.89318889 160.82278892 -113.56803816 160.02582151 -115.2409668 159.22485352 C-117.08347895 158.34983963 -118.94101898 157.50652894 -120.80249023 156.67260742 C-123.97680154 154.88303192 -126.00372521 152.80964663 -128.49780273 150.15307617 C-129.643574 149.05510187 -130.79504214 147.96305384 -131.95092773 146.87573242 C-149.72097827 129.86695616 -163.11097547 107.3969712 -164.44311523 82.20385742 C-164.46116211 81.19709961 -164.47920898 80.1903418 -164.49780273 79.15307617 C-164.51681641 78.42910645 -164.53583008 77.70513672 -164.55541992 76.95922852 C-164.61664482 74.4404763 -164.65529665 71.92238665 -164.68530273 69.40307617 C-164.70524292 68.19566772 -164.70524292 68.19566772 -164.72558594 66.96386719 C-164.73124476 61.9959387 -164.07376943 57.91392331 -162.49780273 53.15307617 C-162.16522461 51.95811523 -161.83264648 50.7631543 -161.48999023 49.53198242 C-155.60978194 29.44469745 -145.61098728 11.88026993 -129.49780273 -1.84692383 C-128.83780273 -1.84692383 -128.17780273 -1.84692383 -127.49780273 -1.84692383 C-127.49780273 -2.50692383 -127.49780273 -3.16692383 -127.49780273 -3.84692383 C-125.00101037 -5.86228739 -122.17782341 -7.43776924 -119.43530273 -9.09692383 C-118.61908447 -9.5912793 -117.80286621 -10.08563477 -116.96191406 -10.5949707 C-79.25002189 -32.91777085 -32.9467364 -28.61463957 0 0 Z M-126.49780273 5.15307617 C-127.40401367 5.96518555 -128.31022461 6.77729492 -129.24389648 7.61401367 C-141.01487872 18.74828536 -150.18907256 33.44124148 -154.49780273 49.15307617 C-154.49780273 51.46307617 -154.49780273 53.77307617 -154.49780273 56.15307617 C-95.75780273 56.15307617 -37.01780273 56.15307617 23.50219727 56.15307617 C22.60115634 46.86830451 22.60115634 46.86830451 19.62719727 38.52807617 C19.32330078 37.85494385 19.0194043 37.18181152 18.70629883 36.48828125 C7.671003 13.10202625 -11.25369851 -4.14900431 -35.45629883 -13.1315918 C-66.69150736 -24.07624152 -101.7773703 -17.02087748 -126.49780273 5.15307617 Z M-156.49780273 58.15307617 C-160.12685588 78.31448255 -156.4571167 99.37009731 -146.49780273 117.15307617 C-145.9628418 118.12374023 -145.42788086 119.0944043 -144.87670898 120.09448242 C-140.38989241 127.65858806 -134.63387887 133.9229933 -128.49780273 140.15307617 C-127.71663086 140.95874023 -126.93545898 141.7644043 -126.13061523 142.59448242 C-115.69892786 152.69249629 -102.33531645 159.13191834 -88.49780273 163.15307617 C-87.2390332 163.52045898 -87.2390332 163.52045898 -85.95483398 163.89526367 C-79.52744338 165.38715402 -73.00152322 165.35235703 -66.43530273 165.40307617 C-65.51297852 165.41250244 -64.5906543 165.42192871 -63.64038086 165.43164062 C-41.44139606 165.32681648 -19.9337737 155.74683673 -3.49780273 141.15307617 C-2.81331055 140.55108398 -2.12881836 139.9490918 -1.42358398 139.32885742 C13.48586505 125.35674113 24.40015328 104.21659234 25.72436523 83.71313477 C26.60027891 70.26036947 26.60027891 70.26036947 24.50219727 57.15307617 C1.0503848 57.1297498 -22.40142593 57.11209829 -45.85324764 57.101264 C-56.7415245 57.09610048 -67.62979416 57.08905673 -78.51806641 57.07763672 C-88.00463842 57.06769157 -97.49120523 57.06122315 -106.97778231 57.05898768 C-112.00413028 57.05768028 -117.03046335 57.05459261 -122.05680656 57.04734612 C-126.7820217 57.04058857 -131.50721571 57.03845867 -136.23243523 57.03996849 C-137.97196568 57.03969204 -139.71149681 57.03768535 -141.4510231 57.0338707 C-143.81539259 57.02893758 -146.17968099 57.03007645 -148.54405212 57.03282166 C-149.24150998 57.02990881 -149.93896783 57.02699597 -150.65756077 57.02399486 C-153.85546724 56.76552532 -153.85546724 56.76552532 -156.49780273 58.15307617 Z M-43.49780273 169.15307617 C-39.49780273 170.15307617 -39.49780273 170.15307617 -39.49780273 170.15307617 Z M-87.49780273 170.15307617 C-87.49780273 170.48307617 -87.49780273 170.81307617 -87.49780273 171.15307617 C-85.84780273 171.15307617 -84.19780273 171.15307617 -82.49780273 171.15307617 C-82.49780273 170.82307617 -82.49780273 170.49307617 -82.49780273 170.15307617 C-84.14780273 170.15307617 -85.79780273 170.15307617 -87.49780273 170.15307617 Z M-48.49780273 170.15307617 C-48.49780273 170.48307617 -48.49780273 170.81307617 -48.49780273 171.15307617 C-46.84780273 171.15307617 -45.19780273 171.15307617 -43.49780273 171.15307617 C-43.49780273 170.82307617 -43.49780273 170.49307617 -43.49780273 170.15307617 C-45.14780273 170.15307617 -46.79780273 170.15307617 -48.49780273 170.15307617 Z M-81.49780273 171.15307617 C-77.49780273 172.15307617 -77.49780273 172.15307617 -77.49780273 172.15307617 Z M-54.49780273 171.15307617 C-54.49780273 171.48307617 -54.49780273 171.81307617 -54.49780273 172.15307617 C-52.84780273 172.15307617 -51.19780273 172.15307617 -49.49780273 172.15307617 C-49.49780273 171.82307617 -49.49780273 171.49307617 -49.49780273 171.15307617 C-51.14780273 171.15307617 -52.79780273 171.15307617 -54.49780273 171.15307617 Z " fill="#303736" transform="translate(165.497802734375,24.846923828125)"/>
<path d="M0 0 C5.94 0 11.88 0 18 0 C18 2.97 18 5.94 18 9 C23.94 9 29.88 9 36 9 C36 14.94 36 20.88 36 27 C21.48 27 6.96 27 -8 27 C-8 24.03 -8 21.06 -8 18 C-5.36 18 -2.72 18 0 18 C0 12.06 0 6.12 0 0 Z " fill="#3D6C73" transform="translate(121,138)"/>
<path d="M0 0 C0 0.66 0 1.32 0 2 C0.66 2 1.32 2 2 2 C2.12375 2.86625 2.12375 2.86625 2.25 3.75 C2.84645736 6.18509149 2.84645736 6.18509149 5.125 7.8125 C7 10 7 10 6.9375 13.625 C6 17 6 17 3 19 C2.01 19 1.02 19 0 19 C0 22.3 0 25.6 0 29 C0.99 29.33 1.98 29.66 3 30 C-6.9 30 -16.8 30 -27 30 C-26.505 21.09 -26.505 21.09 -26 12 C-19.565 11.505 -19.565 11.505 -13 11 C-13.33 10.67 -13.66 10.34 -14 10 C-14.1875 7.0625 -14.1875 7.0625 -14 4 C-10.28835785 0.28835785 -5.09745779 -0.30893684 0 0 Z " fill="#50686F" transform="translate(78,29)"/>
<path d="M0 0 C0.99 0.33 1.98 0.66 3 1 C2.89300781 1.60328125 2.78601563 2.2065625 2.67578125 2.828125 C1.73564449 7.74453602 1.73564449 7.74453602 3.4375 12.1875 C3.953125 12.785625 4.46875 13.38375 5 14 C5.1875 17.25 5.1875 17.25 5 20 C4.34 20 3.68 20 3 20 C2.91995518 23.5219721 2.95994298 26.61981469 4 30 C2.35 30 0.7 30 -1 30 C-1 29.34 -1 28.68 -1 28 C-4.98196457 26.94595055 -7.98195309 27.15901344 -12 28 C-13.32 25.36 -14.64 22.72 -16 20 C-16.99 20.66 -17.98 21.32 -19 22 C-21.89163378 22.36145422 -23.3930447 22.38440503 -25.875 20.8125 C-27 19 -27 19 -26.9375 16.5625 C-26 14 -26 14 -23.9375 12.125 C-21.60985033 10.01534576 -21.60985033 10.01534576 -21.75 6.25 C-21.87375 4.64125 -21.87375 4.64125 -22 3 C-20.68 2.67 -19.36 2.34 -18 2 C-17.34 3.32 -16.68 4.64 -16 6 C-14.33388095 6.042721 -12.66617115 6.04063832 -11 6 C-10.67 5.67 -10.34 5.34 -10 5 C-7.66702567 4.95907063 -5.33294775 4.95758277 -3 5 C-2.87625 4.360625 -2.7525 3.72125 -2.625 3.0625 C-2.315625 2.0415625 -2.315625 2.0415625 -2 1 C-1.34 0.67 -0.68 0.34 0 0 Z " fill="#4889CA" transform="translate(73,137)"/>
<path d="M0 0 C0 0.99 0 1.98 0 3 C1.03060547 2.96519531 1.03060547 2.96519531 2.08203125 2.9296875 C3.43361328 2.90261719 3.43361328 2.90261719 4.8125 2.875 C5.70582031 2.85179687 6.59914062 2.82859375 7.51953125 2.8046875 C10 3 10 3 13 5 C13.56960514 10.69605135 12.99246135 14.01256442 10 19 C9.5875 19.94875 9.175 20.8975 8.75 21.875 C7 24 7 24 3.5625 24.375 C0.88550495 24.09321105 -1.41728355 23.64567911 -4 23 C-4.99 23.33 -5.98 23.66 -7 24 C-10.85536603 22.75633354 -12.81090788 20.32138115 -15 17 C-15.75 13.6875 -15.75 13.6875 -16 11 C-16.99 11 -17.98 11 -19 11 C-18.67 10.01 -18.34 9.02 -18 8 C-18 8.66 -18 9.32 -18 10 C-17.01 10 -16.02 10 -15 10 C-14.38125 11.60875 -14.38125 11.60875 -13.75 13.25 C-12.3427424 16.52917572 -10.80875184 18.71788913 -8 21 C-7.01 21.33 -6.02 21.66 -5 22 C-5.75150023 18.72226496 -5.75150023 18.72226496 -9 17 C-9.6875 13.875 -9.6875 13.875 -10 11 C-9.34 11 -8.68 11 -8 11 C-8.99 8.69 -9.98 6.38 -11 4 C-7.20307814 1.17438373 -4.81430721 -0.56638908 0 0 Z " fill="#0C8274" transform="translate(140,36)"/>
<path d="M0 0 C3.3 0 6.6 0 10 0 C10 3.3 10 6.6 10 10 C12.31 10 14.62 10 17 10 C17 12.31 17 14.62 17 17 C15.02 17 13.04 17 11 17 C10.67 20.3 10.34 23.6 10 27 C4.06 27 -1.88 27 -8 27 C-8 24.03 -8 21.06 -8 18 C-5.36 18 -2.72 18 0 18 C0 12.06 0 6.12 0 0 Z " fill="#38696D" transform="translate(121,138)"/>
<path d="M0 0 C3.10468645 -0.08083562 6.20727569 -0.14041718 9.3125 -0.1875 C10.19357422 -0.21263672 11.07464844 -0.23777344 11.98242188 -0.26367188 C13.25375977 -0.27817383 13.25375977 -0.27817383 14.55078125 -0.29296875 C15.72120972 -0.31653442 15.72120972 -0.31653442 16.9152832 -0.34057617 C19 0 19 0 22 3 C22 6.3 22 9.6 22 13 C14.74 13 7.48 13 0 13 C0 8.71 0 4.42 0 0 Z " fill="#DAE5E4" transform="translate(55,45)"/>
<path d="M0 0 C1.28132813 0.00902344 2.56265625 0.01804687 3.8828125 0.02734375 C4.87023437 0.03894531 5.85765625 0.05054687 6.875 0.0625 C7.865 3.3625 8.855 6.6625 9.875 10.0625 C6.245 10.0625 2.615 10.0625 -1.125 10.0625 C-1.125 9.0725 -1.125 8.0825 -1.125 7.0625 C-6.84363052 8.34389327 -6.84363052 8.34389327 -11.125 12.0625 C-10.465 14.0425 -9.805 16.0225 -9.125 18.0625 C-9.785 18.0625 -10.445 18.0625 -11.125 18.0625 C-10.795 19.3825 -10.465 20.7025 -10.125 22.0625 C-10.785 21.7325 -11.445 21.4025 -12.125 21.0625 C-12.104375 20.155 -12.08375 19.2475 -12.0625 18.3125 C-12.1139755 15.63577412 -12.3465017 13.59261948 -13.125 11.0625 C-15.105 12.0525 -15.105 12.0525 -17.125 13.0625 C-16.465 11.7425 -15.805 10.4225 -15.125 9.0625 C-14.465 9.0625 -13.805 9.0625 -13.125 9.0625 C-13.455 7.7425 -13.785 6.4225 -14.125 5.0625 C-8.90640511 0.80522522 -6.78391079 -0.06167192 0 0 Z " fill="#195E5B" transform="translate(141.125,28.9375)"/>
<path d="M0 0 C0 0.66 0 1.32 0 2 C0.66 2 1.32 2 2 2 C2 3.32 2 4.64 2 6 C1.21625 6.20625 0.4325 6.4125 -0.375 6.625 C-3.29736581 7.8037178 -3.29736581 7.8037178 -4.3125 11.0625 C-5.03798074 13.6594681 -5.03798074 13.6594681 -5 15 C-11.27 15 -17.54 15 -24 15 C-24 19.62 -24 24.24 -24 29 C-24.33 29 -24.66 29 -25 29 C-25.33 23.39 -25.66 17.78 -26 12 C-19.565 11.505 -19.565 11.505 -13 11 C-13.33 10.67 -13.66 10.34 -14 10 C-14.1875 7.0625 -14.1875 7.0625 -14 4 C-10.28835785 0.28835785 -5.09745779 -0.30893684 0 0 Z " fill="#19AD9C" transform="translate(78,29)"/>
<path d="M0 0 C3.22229184 0.77975331 5.72413498 1.08075208 9 0.5625 C13.03765388 -0.02361105 15.85272059 0.41612073 19.875 1 C24.54283788 1.09243243 29.20682386 1.05827127 33.875 1 C34.4375 2.9375 34.4375 2.9375 34.875 5 C33.875 6 33.875 6 29.91015625 6.09765625 C28.2525762 6.09097785 26.59501127 6.07901161 24.9375 6.0625 C24.10025391 6.05798828 23.26300781 6.05347656 22.40039062 6.04882812 C20.84642135 6.04007689 19.2924614 6.02928417 17.73852539 6.01586914 C16.45071942 6.00490263 15.16285266 6 13.875 6 C10.20833333 6 6.54166667 6 2.875 6 C1.83279297 6.01740234 1.83279297 6.01740234 0.76953125 6.03515625 C-1.19517802 6.06095919 -3.16038528 6.0322068 -5.125 6 C-6.125 5 -6.125 5 -6.1875 2.4375 C-6.166875 1.633125 -6.14625 0.82875 -6.125 0 C-3.55135158 -1.28682421 -2.72676357 -0.76007347 0 0 Z " fill="#5AB4A8" transform="translate(113.125,67)"/>
<path d="M0 0 C0.99 0.33 1.98 0.66 3 1 C2.89300781 1.60328125 2.78601563 2.2065625 2.67578125 2.828125 C1.73564449 7.74453602 1.73564449 7.74453602 3.4375 12.1875 C3.953125 12.785625 4.46875 13.38375 5 14 C5.1875 17.25 5.1875 17.25 5 20 C2.125 20.625 2.125 20.625 -1 21 C-3 19 -3 19 -3.125 16.375 C-3.08375 15.59125 -3.0425 14.8075 -3 14 C-4.98 14 -6.96 14 -9 14 C-9 13.34 -9 12.68 -9 12 C-9.66 12 -10.32 12 -11 12 C-11.66 10.35 -12.32 8.7 -13 7 C-9.3558226 4.5705484 -7.28758728 4.83820425 -3 5 C-2.87625 4.360625 -2.7525 3.72125 -2.625 3.0625 C-2.41875 2.381875 -2.2125 1.70125 -2 1 C-1.34 0.67 -0.68 0.34 0 0 Z " fill="#4786C5" transform="translate(73,137)"/>
<path d="M0 0 C2.64 0 5.28 0 8 0 C8 8.91 8 17.82 8 27 C5.36 27 2.72 27 0 27 C0 23.37 0 19.74 0 16 C2.31 16.33 4.62 16.66 7 17 C7 14.69 7 12.38 7 10 C4.69 10 2.38 10 0 10 C0 6.7 0 3.4 0 0 Z " fill="#34686C" transform="translate(131,138)"/>
<path d="M0 0 C3.3 0 6.6 0 10 0 C10 3.3 10 6.6 10 10 C12.31 10 14.62 10 17 10 C17 12.31 17 14.62 17 17 C15.02 17 13.04 17 11 17 C10.67 20.3 10.34 23.6 10 27 C9.67 27 9.34 27 9 27 C9 21.06 9 15.12 9 9 C6.36 9 3.72 9 1 9 C0 8 0 8 -0.09765625 6.15234375 C-0.06510417 4.1015625 -0.03255208 2.05078125 0 0 Z " fill="#4F7E84" transform="translate(121,138)"/>
<path d="M0 0 C0.66 0 1.32 0 2 0 C2 0.66 2 1.32 2 2 C5.96 2 9.92 2 14 2 C14.495 3.98 14.495 3.98 15 6 C10.94894494 7.01276377 7.40492034 7.00240912 3.25 6.6875 C2.10015625 6.60886719 0.9503125 6.53023437 -0.234375 6.44921875 C-1.60335937 6.22685547 -1.60335937 6.22685547 -3 6 C-3.33 5.34 -3.66 4.68 -4 4 C-4.37125 4.48984375 -4.7425 4.9796875 -5.125 5.484375 C-7.76988531 7.62232396 -9.64428246 7.33224798 -13 7.25 C-14.051875 7.23453125 -15.10375 7.2190625 -16.1875 7.203125 C-19 7 -19 7 -22 6 C-22 4.68 -22 3.36 -22 2 C-15.07 2 -8.14 2 -1 2 C-0.67 1.34 -0.34 0.68 0 0 Z " fill="#90B9E2" transform="translate(75,126)"/>
<path d="M0 0 C0.66 0 1.32 0 2 0 C0.58676743 4.65435876 -2.09101309 7.38909415 -5.5625 10.625 C-9.5641158 14.25056383 -9.5641158 14.25056383 -12 19 C-13.3828125 20.28125 -13.3828125 20.28125 -15.125 21.5 C-15.68445313 21.9021875 -16.24390625 22.304375 -16.8203125 22.71875 C-19.17933878 24.10541778 -21.61537792 25.15657985 -24.13964844 26.20556641 C-27.1691072 27.49924867 -30.10325846 28.99168993 -33.0625 30.4375 C-41.87776372 34.62970671 -51.08931956 38.37258197 -61 38 C-57.75800694 36.17206774 -54.38538448 35.11168456 -50.85620117 33.99536133 C-41.43517545 31.01511145 -32.73515296 27.56060871 -24.30078125 22.32421875 C-22 21 -22 21 -20 21 C-20 20.34 -20 19.68 -20 19 C-18.5776551 18.02305705 -17.14976781 17.05304464 -15.69287109 16.12841797 C-13.01648787 14.34441981 -10.69391289 12.21806062 -8.3125 10.0625 C-7.38050781 9.22847656 -6.44851562 8.39445313 -5.48828125 7.53515625 C-3.14483416 5.14756259 -1.69076884 2.85540719 0 0 Z " fill="#4B4B4B" transform="translate(175,156)"/>
<path d="M0 0 C0.33 0.66 0.66 1.32 1 2 C1.99 1.67 2.98 1.34 4 1 C4 1.66 4 2.32 4 3 C5.32 2.67 6.64 2.34 8 2 C8 2.66 8 3.32 8 4 C8.90363281 3.97679687 9.80726562 3.95359375 10.73828125 3.9296875 C11.91777344 3.91164062 13.09726563 3.89359375 14.3125 3.875 C16.07013672 3.84019531 16.07013672 3.84019531 17.86328125 3.8046875 C21 4 21 4 24 6 C6.18 6 -11.64 6 -30 6 C-29.67 5.34 -29.34 4.68 -29 4 C-21.74150349 2.57676539 -14.36769953 2.90686897 -7 3 C-7 2.34 -7 1.68 -7 1 C-3.535 0.505 -3.535 0.505 0 0 Z " fill="#101010" transform="translate(70,192)"/>
<path d="M0 0 C2.64 0.33 5.28 0.66 8 1 C8 1.66 8 2.32 8 3 C8.9178125 2.98839844 9.835625 2.97679687 10.78125 2.96484375 C24.21686747 2.86605245 24.21686747 2.86605245 30 4 C30.495 4.99 30.495 4.99 31 6 C13.18 6 -4.64 6 -23 6 C-20.03651571 4.0243438 -19.31979627 3.73623141 -15.98828125 3.5859375 C-15.23095703 3.54726562 -14.47363281 3.50859375 -13.69335938 3.46875 C-12.90767578 3.4378125 -12.12199219 3.406875 -11.3125 3.375 C-10.51521484 3.33632812 -9.71792969 3.29765625 -8.89648438 3.2578125 C-6.93136525 3.16367506 -4.9657146 3.08075368 -3 3 C-2.67 2.34 -2.34 1.68 -2 1 C-1.34 1.33 -0.68 1.66 0 2 C0 1.34 0 0.68 0 0 Z " fill="#101010" transform="translate(129,192)"/>
<path d="M0 0 C2.2560708 0.43931602 4.4540671 1.03743923 6.67578125 1.625 C9.16723621 2.02698265 10.59721462 1.63413717 13 1 C13.99 1.33 14.98 1.66 16 2 C18.22818441 2.06937062 20.45834524 2.08457084 22.6875 2.0625 C23.86699219 2.05347656 25.04648438 2.04445313 26.26171875 2.03515625 C27.16535156 2.02355469 28.06898438 2.01195313 29 2 C28.39816251 4.02045442 27.72693904 6.02111039 27 8 C26.01 8.495 26.01 8.495 25 9 C24.67 8.34 24.34 7.68 24 7 C23.0925 7 22.185 7 21.25 7 C13.83333333 7 6.41666667 7 -1 7 C-1.04254356 5.00045254 -1.04080783 2.99958364 -1 1 C-0.67 0.67 -0.34 0.34 0 0 Z " fill="#63B7AC" transform="translate(151,66)"/>
<path d="M0 0 C10.56 0 21.12 0 32 0 C32 1.65 32 3.3 32 5 C21.77 5 11.54 5 1 5 C0.67 3.35 0.34 1.7 0 0 Z " fill="#8CB1B0" transform="translate(50,58)"/>
<path d="M0 0 C-0.83192871 0.43082886 -0.83192871 0.43082886 -1.68066406 0.87036133 C-4.20572984 2.18068143 -6.72787494 3.49652909 -9.25 4.8125 C-10.12269531 5.26431641 -10.99539062 5.71613281 -11.89453125 6.18164062 C-12.73886719 6.62314453 -13.58320312 7.06464844 -14.453125 7.51953125 C-15.22817383 7.92276611 -16.00322266 8.32600098 -16.80175781 8.74145508 C-19.05842901 9.9684548 -19.05842901 9.9684548 -21.15917969 11.6550293 C-23 13 -23 13 -25 13 C-25 13.66 -25 14.32 -25 15 C-26.25177378 16.00988512 -27.55459996 16.95665949 -28.875 17.875 C-37.43790393 24.33426139 -43.75542395 33.36928514 -50 42 C-50.33 41.34 -50.66 40.68 -51 40 C-50.38125 39.113125 -49.7625 38.22625 -49.125 37.3125 C-46.98333136 34.25660416 -46.98333136 34.25660416 -46.1484375 31.55859375 C-44.75109602 28.44546903 -43.08748214 26.96082335 -40.5 24.75 C-36.50753481 21.31360464 -36.50753481 21.31360464 -32.64453125 17.734375 C-26.28429672 11.64048195 -9.50635956 -3.16878652 0 0 Z " fill="#535353" transform="translate(67,9)"/>
<path d="M0 0 C2.16874252 0.50603992 3.99967627 0.99983813 6 2 C9.65100234 2.20666051 12.34205876 2.26915778 15.75 0.875 C16.86375 0.441875 16.86375 0.441875 18 0 C18.99 0.66 19.98 1.32 21 2 C23.33199388 2.07905064 25.66832622 2.08798769 28 2 C28.33 3.32 28.66 4.64 29 6 C28.01 6 27.02 6 26 6 C23.84971696 6.94978897 23.84971696 6.94978897 22 8 C21.34 7.34 20.68 6.68 20 6 C17.39719432 6.32041397 17.39719432 6.32041397 15 7 C14.67 6.34 14.34 5.68 14 5 C13.67 5.66 13.34 6.32 13 7 C10.69 7 8.38 7 6 7 C6 6.34 6 5.68 6 5 C5.34 5 4.68 5 4 5 C2.375 3.5 2.375 3.5 1 2 C1 3.32 1 4.64 1 6 C1.66 6.33 2.32 6.66 3 7 C2.01 7 1.02 7 0 7 C0 4.69 0 2.38 0 0 Z " fill="#74D4D0" transform="translate(51,66)"/>
<path d="M0 0 C0.99 0 1.98 0 3 0 C3 0.66 3 1.32 3 2 C3.99 2.33 4.98 2.66 6 3 C6.66 3.66 7.32 4.32 8 5 C8.33 4.34 8.66 3.68 9 3 C9.66 3 10.32 3 11 3 C10.47731534 5.76276177 9.89130413 8.3260876 9 11 C8.01 11 7.02 11 6 11 C5.34 9.68 4.68 8.36 4 7 C3.67 8.65 3.34 10.3 3 12 C0.69 12 -1.62 12 -4 12 C-5.60725635 8.78548731 -5.05748185 5.56387464 -5 2 C-4.34 1.67 -3.68 1.34 -3 1 C-2.01 1.33 -1.02 1.66 0 2 C0 1.34 0 0.68 0 0 Z " fill="#434748" transform="translate(131,93)"/>
<path d="M0 0 C2.27864583 0.06510417 4.55729167 0.13020833 6.8359375 0.1953125 C6.8359375 3.8253125 6.8359375 7.4553125 6.8359375 11.1953125 C0 11.390625 0 11.390625 -2.1640625 11.1953125 C-4.1640625 9.1953125 -4.1640625 9.1953125 -4.4140625 5.6953125 C-4.14689263 1.9549343 -3.95834754 0.35725158 0 0 Z " fill="#4A4B4B" transform="translate(66.1640625,92.8046875)"/>
<path d="M0 0 C0.83828626 2.38589166 1.11693437 3.63831928 0.328125 6.078125 C-0.02765625 6.79484375 -0.3834375 7.5115625 -0.75 8.25 C-2.14339354 11.13530985 -3.22729693 13.72974278 -4.1875 16.8125 C-8.19623431 27.61678927 -17.81859712 36.23149035 -26 44 C-26 41 -26 41 -23.8828125 38.6953125 C-22.04965577 36.98678966 -20.21632346 35.27845519 -18.3828125 33.5703125 C-16.02594573 31.02798736 -15.02413818 29.26646178 -14 26 C-13.67 25.01 -13.34 24.02 -13 23 C-12.34 23 -11.68 23 -11 23 C-10.89300781 22.44828125 -10.78601563 21.8965625 -10.67578125 21.328125 C-9.86531933 18.53601342 -8.61610491 16.2817049 -7.1875 13.75 C-4.66400991 9.21987923 -2.28363067 4.65509329 0 0 Z " fill="#393939" transform="translate(190,130)"/>
<path d="M0 0 C2.875 -0.125 2.875 -0.125 6 0 C8 2 8 2 8.1953125 4.1640625 C8.13020833 6.44270833 8.06510417 8.72135417 8 11 C3.71 11 -0.58 11 -5 11 C-3.68 8.36 -2.36 5.72 -1 3 C-0.34 3.33 0.32 3.66 1 4 C0.67 5.32 0.34 6.64 0 8 C0.66 7.67 1.32 7.34 2 7 C2 5.68 2 4.36 2 3 C1.34 2.67 0.68 2.34 0 2 C0 1.34 0 0.68 0 0 Z " fill="#E6F2F0" transform="translate(69,46)"/>
<path d="M0 0 C1.27230469 0.01804687 2.54460937 0.03609375 3.85546875 0.0546875 C5.31919922 0.08949219 5.31919922 0.08949219 6.8125 0.125 C7.4725 2.435 8.1325 4.745 8.8125 7.125 C6.5025 7.125 4.1925 7.125 1.8125 7.125 C1.8125 6.135 1.8125 5.145 1.8125 4.125 C1.12542969 4.269375 0.43835938 4.41375 -0.26953125 4.5625 C-1.17058594 4.748125 -2.07164062 4.93375 -3 5.125 C-3.89332031 5.310625 -4.78664062 5.49625 -5.70703125 5.6875 C-8.1875 6.125 -8.1875 6.125 -11.1875 6.125 C-10.875 4.25 -10.875 4.25 -10.1875 2.125 C-6.4507157 -0.36618953 -4.44298181 -0.0815226 0 0 Z " fill="#06A79A" transform="translate(140.1875,30.875)"/>
<path d="M0 0 C0.66 0 1.32 0 2 0 C2 0.66 2 1.32 2 2 C6.95 2 11.9 2 17 2 C17 3.65 17 5.3 17 7 C16.0925 6.814375 15.185 6.62875 14.25 6.4375 C11.25209026 6.03393523 9.80837006 6.19760855 7 7 C6.34 6.67 5.68 6.34 5 6 C5 5.01 5 4.02 5 3 C4.34 3 3.68 3 3 3 C3 3.99 3 4.98 3 6 C-2.625 7.125 -2.625 7.125 -6 6 C-6 4.35 -6 2.7 -6 1 C-3.03 1.495 -3.03 1.495 0 2 C0 1.34 0 0.68 0 0 Z " fill="#97DFDE" transform="translate(138,126)"/>
<path d="M0 0 C0.99 0 1.98 0 3 0 C3 1.98 3 3.96 3 6 C4.32 6 5.64 6 7 6 C7 6.99 7 7.98 7 9 C5.35 9 3.7 9 2 9 C2 9.99 2 10.98 2 12 C0.00045254 12.04254356 -2.00041636 12.04080783 -4 12 C-5 11 -5 11 -5.0625 7.9375 C-5.041875 6.968125 -5.02125 5.99875 -5 5 C-3.35 4.67 -1.7 4.34 0 4 C0 2.68 0 1.36 0 0 Z " fill="#707374" transform="translate(98,92)"/>
<path d="M0 0 C1.32 0 2.64 0 4 0 C4.34884724 4.89839668 3.46792622 7.65895937 1 11.875 C0.443125 12.84179688 -0.11375 13.80859375 -0.6875 14.8046875 C-1.3371875 15.89136719 -1.3371875 15.89136719 -2 17 C-3.98 16.67 -5.96 16.34 -8 16 C-7.25 13.0625 -7.25 13.0625 -6 10 C-4.68 9.67 -3.36 9.34 -2 9 C-1.34 6.03 -0.68 3.06 0 0 Z " fill="#9FD0CE" transform="translate(148,42)"/>
<path d="M0 0 C6.15234375 -0.09765625 6.15234375 -0.09765625 8 0 C9 1 9 1 9.09765625 2.84765625 C9.04882812 5.92382812 9.04882812 5.92382812 9 9 C6.03 9 3.06 9 0 9 C0 6.03 0 3.06 0 0 Z " fill="#54777D" transform="translate(113,156)"/>
<path d="M0 0 C0.66 0 1.32 0 2 0 C3.00668628 2.88583401 3.94186906 5.59308343 4.375 8.625 C5.17353006 11.65941424 6.77988262 12.85149931 9 15 C9 15.99 9 16.98 9 18 C4.71150812 17.5235009 2.6335318 15.27412061 0 12 C-0.6875 8.25 -0.6875 8.25 -1 5 C-1.66 4.67 -2.32 4.34 -3 4 C-1.625 2 -1.625 2 0 0 Z " fill="#D7E1E1" transform="translate(126,40)"/>
<path d="M0 0 C0.556875 0.391875 1.11375 0.78375 1.6875 1.1875 C1.6875 4.98722824 1.53604944 6.10658427 -0.3125 9.1875 C-0.9725 9.8475 -1.6325 10.5075 -2.3125 11.1875 C-4.9375 10.8125 -4.9375 10.8125 -7.3125 10.1875 C-7.74530791 4.90724352 -7.74530791 4.90724352 -7.3125 2.1875 C-4.67737494 -0.30122922 -3.50979442 -1.23317101 0 0 Z " fill="#4684C1" transform="translate(58.3125,156.8125)"/>
<path d="M0 0 C3.0625 0.1875 3.0625 0.1875 5.0625 2.1875 C5.3125 4.6875 5.3125 4.6875 5.0625 7.1875 C3.0625 9.1875 3.0625 9.1875 0.625 9.5 C-1.9375 9.1875 -1.9375 9.1875 -3.8125 8 C-4.9375 6.1875 -4.9375 6.1875 -4.6875 3.5625 C-3.63578571 0.23207143 -3.63578571 0.23207143 0 0 Z " fill="#4F6B82" transform="translate(50.9375,149.8125)"/>
<path d="M0 0 C6.6 0 13.2 0 20 0 C20.33 0.99 20.66 1.98 21 3 C14.73 3 8.46 3 2 3 C2 7.62 2 12.24 2 17 C1.67 17 1.34 17 1 17 C0.67 11.39 0.34 5.78 0 0 Z " fill="#7FA1A1" transform="translate(52,41)"/>
<path d="M0 0 C0.99 0.103125 1.98 0.20625 3 0.3125 C5 3.3125 5 3.3125 4.625 5.5 C4.41875 6.098125 4.2125 6.69625 4 7.3125 C3.01 7.3125 2.02 7.3125 1 7.3125 C1.33 8.3025 1.66 9.2925 2 10.3125 C0.35 10.6425 -1.3 10.9725 -3 11.3125 C-4.84651134 8.19651212 -5.38079379 5.93004103 -5 2.3125 C-3 0.3125 -3 0.3125 0 0 Z " fill="#05A89B" transform="translate(79,36.6875)"/>
<path d="M0 0 C2.5654594 2.5654594 2.54046087 4.47686668 3 8 C0.36 8.33 -2.28 8.66 -5 9 C-5.99 6.69 -6.98 4.38 -8 2 C-4.77626323 -0.14915785 -3.73296326 -0.38286803 0 0 Z " fill="#486985" transform="translate(66,156)"/>
<path d="M0 0 C2 0.25 2 0.25 4 1 C4.33 1.99 4.66 2.98 5 4 C5.66 4.33 6.32 4.66 7 5 C6.01 5 5.02 5 4 5 C4.99 6.98 5.98 8.96 7 11 C5.3125 12.125 5.3125 12.125 3 13 C0.25 12.125 0.25 12.125 -2 11 C-1.835 10.278125 -1.67 9.55625 -1.5 8.8125 C-0.91977639 6.02484197 -0.91977639 6.02484197 -1 3.25 C-1 1 -1 1 0 0 Z " fill="#447AAC" transform="translate(52,139)"/>
<path d="M0 0 C1.8125 0.375 1.8125 0.375 4 1 C4.7425 1.185625 5.485 1.37125 6.25 1.5625 C6.8275 1.706875 7.405 1.85125 8 2 C7.979375 2.7425 7.95875 3.485 7.9375 4.25 C7.99328688 6.70462279 8.3069904 8.66109261 9 11 C7.35 11 5.7 11 4 11 C4 10.34 4 9.68 4 9 C3.01 8.67 2.02 8.34 1 8 C-0.1875 4.4375 -0.1875 4.4375 -1 1 C-0.67 0.67 -0.34 0.34 0 0 Z " fill="#4787C6" transform="translate(68,156)"/>
<path d="M0 0 C0.99 0 1.98 0 3 0 C3 3.63 3 7.26 3 11 C-1 10 -1 10 -2.25 7.9375 C-2.62125 6.9784375 -2.62125 6.9784375 -3 6 C-3.33 7.65 -3.66 9.3 -4 11 C-4.66 11 -5.32 11 -6 11 C-6 7.7 -6 4.4 -6 1 C-5.01 1 -4.02 1 -3 1 C-2.34 1.99 -1.68 2.98 -1 4 C-0.67 2.68 -0.34 1.36 0 0 Z " fill="#B3B7B8" transform="translate(113,93)"/>
<path d="M0 0 C1.75570312 0.01353516 1.75570312 0.01353516 3.546875 0.02734375 C4.43890625 0.03894531 5.3309375 0.05054687 6.25 0.0625 C5.64816251 2.08295442 4.97693904 4.08361039 4.25 6.0625 C3.26 6.5575 3.26 6.5575 2.25 7.0625 C1.92 6.4025 1.59 5.7425 1.25 5.0625 C0.363125 5.083125 -0.52375 5.10375 -1.4375 5.125 C-4.37169631 5.06963781 -6.90493696 4.7319266 -9.75 4.0625 C-10.08 3.0725 -10.41 2.0825 -10.75 1.0625 C-7.14006828 -0.07230527 -3.7657673 -0.03765767 0 0 Z " fill="#5FB6AB" transform="translate(173.75,67.9375)"/>
<path d="M0 0 C0 2.64 0 5.28 0 8 C-2.64 8 -5.28 8 -8 8 C-8 5.36 -8 2.72 -8 0 C-4.71303767 -0.79953138 -3.28976808 -1.09658936 0 0 Z " fill="#1B6F6B" transform="translate(157,157)"/>
<path d="M0 0 C3.375 -0.125 3.375 -0.125 7 0 C9 2 9 2 9.125 5.125 C9.08375 6.07375 9.0425 7.0225 9 8 C6.125 8.625 6.125 8.625 3 9 C0.23776722 6.23776722 0.42143709 3.79293383 0 0 Z " fill="#44667C" transform="translate(69,149)"/>
<path d="M0 0 C2.31 0 4.62 0 7 0 C7 0.33 7 0.66 7 1 C5.35 1 3.7 1 2 1 C2 1.66 2 2.32 2 3 C2.99 3.33 3.98 3.66 5 4 C4.67 5.65 4.34 7.3 4 9 C3.34 9 2.68 9 2 9 C1.67 7.68 1.34 6.36 1 5 C-0.485 7.475 -0.485 7.475 -2 10 C-3.9375 9.1875 -3.9375 9.1875 -6 8 C-6.33 7.01 -6.66 6.02 -7 5 C-6.67 4.34 -6.34 3.68 -6 3 C-4.35 3.33 -2.7 3.66 -1 4 C-0.67 2.68 -0.34 1.36 0 0 Z " fill="#9EAAAD" transform="translate(67,45)"/>
<path d="M0 0 C0 3.70103827 -1.3608576 5.72171521 -3 9 C-3 9.99 -3 10.98 -3 12 C-3.734375 13.80932617 -3.734375 13.80932617 -4.75 15.79296875 C-5.1109375 16.50517578 -5.471875 17.21738281 -5.84375 17.95117188 C-6.2253125 18.68916016 -6.606875 19.42714844 -7 20.1875 C-7.3815625 20.93708984 -7.763125 21.68667969 -8.15625 22.45898438 C-9.09879809 24.30873499 -10.04870093 26.15473462 -11 28 C-11.66 27.67 -12.32 27.34 -13 27 C-12.73445312 26.443125 -12.46890625 25.88625 -12.1953125 25.3125 C-10.4679665 21.58042398 -8.92605888 18.12042466 -8.1875 14.0625 C-7.00205637 8.57843834 -3.35023425 4.37142865 0 0 Z " fill="#3B3B3B" transform="translate(20,41)"/>
<path d="M0 0 C2.33944736 0.28730055 4.6739143 0.61936779 7 1 C7.125 3.375 7.125 3.375 7 6 C5 8 5 8 2.4375 8.1875 C0 8 0 8 -1 7 C-1.125 4 -1.125 4 -1 1 C-0.67 0.67 -0.34 0.34 0 0 Z " fill="#5B8486" transform="translate(65,32)"/>
<path d="M0 0 C1.8871875 0.0309375 1.8871875 0.0309375 3.8125 0.0625 C4.1425 1.3825 4.4725 2.7025 4.8125 4.0625 C-0.02724712 5.23577203 -4.92006121 5.9927313 -9.625 4.0625 C-10.140625 3.7325 -10.65625 3.4025 -11.1875 3.0625 C-10.5275 2.7325 -9.8675 2.4025 -9.1875 2.0625 C-8.5275 2.3925 -7.8675 2.7225 -7.1875 3.0625 C-7.1875 2.4025 -7.1875 1.7425 -7.1875 1.0625 C-4.43671116 0.14557039 -2.82801087 -0.04636083 0 0 Z " fill="#8FB8E2" transform="translate(85.1875,127.9375)"/>
<path d="M0 0 C3.5 0.1875 3.5 0.1875 7 1 C9.56687367 4.8503105 8.83288724 6.58569763 8 11 C7.01 11.33 6.02 11.66 5 12 C4.67 11.34 4.34 10.68 4 10 C3.01 9.34 2.02 8.68 1 8 C1.99 8 2.98 8 4 8 C4.33 7.01 4.66 6.02 5 5 C5 6.32 5 7.64 5 9 C5.66 8.67 6.32 8.34 7 8 C6.67 6.35 6.34 4.7 6 3 C4.00045254 2.95745644 1.99958364 2.95919217 0 3 C-1.27379279 4.04437265 -1.27379279 4.04437265 -1.0625 6.375 C-1.041875 7.24125 -1.02125 8.1075 -1 9 C-1 9.99 -1 10.98 -1 12 C-2.625 10.375 -2.625 10.375 -4 8 C-3.23021995 4.50099979 -2.543667 2.543667 0 0 Z " fill="#206866" transform="translate(76,35)"/>
<path d="M0 0 C0.66 0 1.32 0 2 0 C2.33 0.66 2.66 1.32 3 2 C3.66 1.34 4.32 0.68 5 0 C5.99 0 6.98 0 8 0 C8.33 0.66 8.66 1.32 9 2 C9.99 2.33 10.98 2.66 12 3 C11.34 3 10.68 3 10 3 C10 3.66 10 4.32 10 5 C10.66 5 11.32 5 12 5 C12 5.66 12 6.32 12 7 C8.04 6.67 4.08 6.34 0 6 C0 4.02 0 2.04 0 0 Z " fill="#90B9E2" transform="translate(40,126)"/>
<path d="M0 0 C2.5 0.125 2.5 0.125 3.5 1.125 C3.625 4.125 3.625 4.125 3.5 7.125 C2.5 8.125 2.5 8.125 0 8.25 C-2.5 8.125 -2.5 8.125 -3.5 7.125 C-3.625 4.125 -3.625 4.125 -3.5 1.125 C-2.5 0.125 -2.5 0.125 0 0 Z " fill="#9C9FA0" transform="translate(78.5,95.875)"/>
<path d="M0 0 C2.375 -0.125 2.375 -0.125 5 0 C5.66 0.66 6.32 1.32 7 2 C7.33 1.34 7.66 0.68 8 0 C8.66 0 9.32 0 10 0 C9.47731534 2.76276177 8.89130413 5.3260876 8 8 C7.01 8 6.02 8 5 8 C4.34 6.68 3.68 5.36 3 4 C2.67 5.32 2.34 6.64 2 8 C1.34 8 0.68 8 0 8 C0 5.36 0 2.72 0 0 Z " fill="#B5B8B9" transform="translate(132,96)"/>
<path d="M0 0 C-0.33 2.31 -0.66 4.62 -1 7 C-1.99 7 -2.98 7 -4 7 C-4.33 7.66 -4.66 8.32 -5 9 C-5 8.34 -5 7.68 -5 7 C-5.66 7 -6.32 7 -7 7 C-7.66 5.35 -8.32 3.7 -9 2 C-5.5647952 -0.29013653 -4.014669 -0.17842973 0 0 Z " fill="#738FA4" transform="translate(69,142)"/>
<path d="M0 0 C1.4540625 0.0309375 1.4540625 0.0309375 2.9375 0.0625 C2.9375 2.3725 2.9375 4.6825 2.9375 7.0625 C0.6275 7.0625 -1.6825 7.0625 -4.0625 7.0625 C-4.10504356 5.06295254 -4.10330783 3.06208364 -4.0625 1.0625 C-3.0625 0.0625 -3.0625 0.0625 0 0 Z " fill="#D8DCDD" transform="translate(144.0625,156.9375)"/>
<path d="M0 0 C2.31 0 4.62 0 7 0 C7 2.31 7 4.62 7 7 C5.00045254 7.04254356 2.99958364 7.04080783 1 7 C0 6 0 6 -0.0625 2.9375 C-0.041875 1.968125 -0.02125 0.99875 0 0 Z " fill="#D8DCDC" transform="translate(149,148)"/>
<path d="M0 0 C0.33 0.66 0.66 1.32 1 2 C1.99 2 2.98 2 4 2 C4.61875 3.60875 4.61875 3.60875 5.25 5.25 C6.6572576 8.52917572 8.19124816 10.71788913 11 13 C11.99 13.33 12.98 13.66 14 14 C13.24849977 10.72226496 13.24849977 10.72226496 10 9 C10 8.34 10 7.68 10 7 C10.66 7 11.32 7 12 7 C12 7.66 12 8.32 12 9 C13.32 9.33 14.64 9.66 16 10 C15.67 11.65 15.34 13.3 15 15 C12 16 12 16 10.0625 15.375 C6.21625062 12.81083375 4.27203994 10.20150975 3.25 5.6875 C3.1675 4.800625 3.085 3.91375 3 3 C2.01 3 1.02 3 0 3 C0 2.01 0 1.02 0 0 Z " fill="#396C6B" transform="translate(121,44)"/>
<path d="M0 0 C2.0625 0.4375 2.0625 0.4375 4 1 C2.68 1.33 1.36 1.66 0 2 C0 2.99 0 3.98 0 5 C1.32 5 2.64 5 4 5 C4.33 4.01 4.66 3.02 5 2 C7.64 2 10.28 2 13 2 C12.67 3.32 12.34 4.64 12 6 C12 5.01 12 4.02 12 3 C11.34 3 10.68 3 10 3 C10 3.99 10 4.98 10 6 C8.54263913 6.19491452 7.08405407 6.38069358 5.625 6.5625 C4.81289062 6.66691406 4.00078125 6.77132812 3.1640625 6.87890625 C1 7 1 7 -1 6 C-1.042721 4.33388095 -1.04063832 2.66617115 -1 1 C-0.67 0.67 -0.34 0.34 0 0 Z " fill="#9EE1E1" transform="translate(118,126)"/>
<path d="M0 0 C1.65 0 3.3 0 5 0 C5.59732819 2.76264289 6 5.16032769 6 8 C4.00045254 8.04254356 1.99958364 8.04080783 0 8 C-0.33 7.67 -0.66 7.34 -1 7 C-0.71269945 4.66055264 -0.38063221 2.3260857 0 0 Z " fill="#B3B6B7" transform="translate(144,96)"/>
<path d="M0 0 C1.66611905 -0.042721 3.33382885 -0.04063832 5 0 C6 1 6 1 6.0625 4.5625 C6.041875 5.696875 6.02125 6.83125 6 8 C4.02 8 2.04 8 0 8 C-0.98120464 4.94736336 -0.98120464 3.05263664 0 0 Z " fill="#B5B8B9" transform="translate(118,96)"/>
<path d="M0 0 C1.98 0 3.96 0 6 0 C6 2.31 6 4.62 6 7 C4.02 7 2.04 7 0 7 C0 4.69 0 2.38 0 0 Z " fill="#9BCBCA" transform="translate(132,157)"/>
<path d="M0 0 C1.98 0 3.96 0 6 0 C6 2.31 6 4.62 6 7 C4.02 7 2.04 7 0 7 C0 4.69 0 2.38 0 0 Z " fill="#9BCACA" transform="translate(141,148)"/>
<path d="M0 0 C1.98 0 3.96 0 6 0 C6 2.31 6 4.62 6 7 C4.02 7 2.04 7 0 7 C0 4.69 0 2.38 0 0 Z " fill="#E6E8E8" transform="translate(132,148)"/>
<path d="M0 0 C1.98 0 3.96 0 6 0 C6 2.31 6 4.62 6 7 C4.02 7 2.04 7 0 7 C0 4.69 0 2.38 0 0 Z " fill="#E6E8E9" transform="translate(123,148)"/>
<path d="M0 0 C0.99 0.33 1.98 0.66 3 1 C2.13375 1.99 1.2675 2.98 0.375 4 C-2.94197541 7.86190708 -5.99283262 11.89447006 -9 16 C-9.33 15.34 -9.66 14.68 -10 14 C-9.38125 13.113125 -8.7625 12.22625 -8.125 11.3125 C-5.97068623 8.21247976 -5.97068623 8.21247976 -5 5.3125 C-3.79619767 2.52870711 -2.64953853 1.44520284 0 0 Z " fill="#4A4A4A" transform="translate(26,35)"/>
<path d="M0 0 C2.63840764 1.03937271 3.54887645 2.4663835 5.0625 4.8125 C2.49036866 6.43199011 1.38580841 6.85658751 -1.6875 6.4375 C-2.43 6.23125 -3.1725 6.025 -3.9375 5.8125 C-3.9375 4.1625 -3.9375 2.5125 -3.9375 0.8125 C-1.9375 -0.1875 -1.9375 -0.1875 0 0 Z " fill="#46AB9E" transform="translate(110.9375,66.1875)"/>
<path d="M0 0 C0.99 0.495 0.99 0.495 2 1 C2 3.31 2 5.62 2 8 C3.98 8 5.96 8 8 8 C8 8.66 8 9.32 8 10 C6.02 10.33 4.04 10.66 2 11 C1.67 13.31 1.34 15.62 1 18 C0.67 18 0.34 18 0 18 C0 12.06 0 6.12 0 0 Z " fill="#43767C" transform="translate(139,147)"/>
<path d="M0 0 C0.66 0 1.32 0 2 0 C2 1.98 2 3.96 2 6 C2.99 6 3.98 6 5 6 C5 4.02 5 2.04 5 0 C5.66 0 6.32 0 7 0 C7 2.64 7 5.28 7 8 C4.69 8 2.38 8 0 8 C0 5.36 0 2.72 0 0 Z " fill="#C9CCCD" transform="translate(84,96)"/>
<path d="M0 0 C0 0.33 0 0.66 0 1 C-1.61068359 1.39832031 -1.61068359 1.39832031 -3.25390625 1.8046875 C-4.6901201 2.16139421 -6.12631712 2.51816866 -7.5625 2.875 C-8.26697266 3.04902344 -8.97144531 3.22304687 -9.69726562 3.40234375 C-14.16024998 4.51294815 -18.58487052 5.71201216 -23 7 C-23 6.01 -23 5.02 -23 4 C-15.1977858 1.51394597 -8.26405949 -0.56993514 0 0 Z " fill="#434343" transform="translate(89,3)"/>
<path d="M0 0 C0.78375 0.04125 1.5675 0.0825 2.375 0.125 C2.375 0.785 2.375 1.445 2.375 2.125 C1.055 2.455 -0.265 2.785 -1.625 3.125 C-1.955 5.105 -2.285 7.085 -2.625 9.125 C-0.975 9.125 0.675 9.125 2.375 9.125 C2.375 9.785 2.375 10.445 2.375 11.125 C0 11.25 0 11.25 -2.625 11.125 C-4.625 9.125 -4.625 9.125 -4.875 5.625 C-4.58138251 1.51435512 -4.25902123 0.20281053 0 0 Z " fill="#CACDCE" transform="translate(66.625,92.875)"/>
<path d="M0 0 C1.98 0 3.96 0 6 0 C6 1.98 6 3.96 6 6 C4.02 6 2.04 6 0 6 C0 4.02 0 2.04 0 0 Z " fill="#05A89B" transform="translate(123,158)"/>
<path d="M0 0 C1.98 0 3.96 0 6 0 C6 1.98 6 3.96 6 6 C4.02 6 2.04 6 0 6 C0 4.02 0 2.04 0 0 Z " fill="#F0F2F2" transform="translate(114,158)"/>
<path d="M0 0 C1.65 0.33 3.3 0.66 5 1 C5 2.65 5 4.3 5 6 C3.125 6.625 3.125 6.625 1 7 C0.34 6.34 -0.32 5.68 -1 5 C-0.625 2.375 -0.625 2.375 0 0 Z " fill="#EFF1F1" transform="translate(49,151)"/>
<path d="M0 0 C1.98 0 3.96 0 6 0 C6 1.98 6 3.96 6 6 C4.02 6 2.04 6 0 6 C0 4.02 0 2.04 0 0 Z " fill="#03A99D" transform="translate(132,139)"/>
<path d="M0 0 C1.98 0 3.96 0 6 0 C6 1.98 6 3.96 6 6 C4.02 6 2.04 6 0 6 C0 4.02 0 2.04 0 0 Z " fill="#F5F6F6" transform="translate(123,139)"/>
<path d="M0 0 C0.5625 1.9375 0.5625 1.9375 1 4 C0 5 0 5 -3.4375 5.125 C-7 5 -7 5 -9 4 C-8.67 3.01 -8.34 2.02 -8 1 C-5.07175348 0.02391783 -3.04386724 -0.08226668 0 0 Z " fill="#6EBCB2" transform="translate(147,68)"/>
<path d="M0 0 C0.33 0 0.66 0 1 0 C1 3.3 1 6.6 1 10 C0.67 10 0.34 10 0 10 C0 8.35 0 6.7 0 5 C-0.99 5 -1.98 5 -3 5 C-3 6.65 -3 8.3 -3 10 C-2.34 10.33 -1.68 10.66 -1 11 C-2.32 10.67 -3.64 10.34 -5 10 C-5 8.02 -5 6.04 -5 4 C-3.35 3.67 -1.7 3.34 0 3 C0 2.01 0 1.02 0 0 Z " fill="#D6D8D9" transform="translate(98,93)"/>
<path d="M0 0 C0.99 0 1.98 0 3 0 C2.979375 0.763125 2.95875 1.52625 2.9375 2.3125 C2.87057159 5.10185786 2.87057159 5.10185786 4 8 C2.35 8.33 0.7 8.66 -1 9 C-1.09765625 2.84765625 -1.09765625 2.84765625 -1 1 C-0.67 0.67 -0.34 0.34 0 0 Z " fill="#83A2A2" transform="translate(77,39)"/>
<path d="M0 0 C1.65 0 3.3 0 5 0 C5 1.98 5 3.96 5 6 C3.35 6 1.7 6 0 6 C0 4.02 0 2.04 0 0 Z " fill="#01AB9E" transform="translate(150,158)"/>
<path d="M0 0 C2.0625 0.4375 2.0625 0.4375 4 1 C4.33 2.32 4.66 3.64 5 5 C3.35 5.33 1.7 5.66 0 6 C-0.38218767 4.34385343 -0.71395102 2.67542976 -1 1 C-0.67 0.67 -0.34 0.34 0 0 Z " fill="#D7E2E2" transform="translate(62,157)"/>
<path d="M0 0 C-0.33 0.99 -0.66 1.98 -1 3 C-0.67 3.33 -0.34 3.66 0 4 C-3.28976808 5.09658936 -4.71303767 4.79953138 -8 4 C-8.33 3.01 -8.66 2.02 -9 1 C-5.92677456 0.08941469 -3.19902639 -0.08886184 0 0 Z " fill="#75BFB6" transform="translate(172,68)"/>
<path d="M0 0 C1.32 0 2.64 0 4 0 C4.125 2.875 4.125 2.875 4 6 C3.34 6.66 2.68 7.32 2 8 C1.01 8 0.02 8 -1 8 C-0.67 5.36 -0.34 2.72 0 0 Z " fill="#94C1C1" transform="translate(148,42)"/>
<path d="M0 0 C1.65 0.33 3.3 0.66 5 1 C4.67 1.66 4.34 2.32 4 3 C4.60578253 5.01927511 5.26919734 7.02253397 6 9 C5.34 9 4.68 9 4 9 C4.33 10.32 4.66 11.64 5 13 C4.34 12.67 3.68 12.34 3 12 C3.020625 11.0925 3.04125 10.185 3.0625 9.25 C3.0110245 6.57327412 2.7784983 4.53011948 2 2 C0.02 2.99 0.02 2.99 -2 4 C-1.34 2.68 -0.68 1.36 0 0 Z " fill="#296261" transform="translate(126,38)"/>
<path d="M0 0 C1.67542976 0.28604898 3.34385343 0.61781233 5 1 C4.67 2.32 4.34 3.64 4 5 C2.68 5 1.36 5 0 5 C-0.5625 3.0625 -0.5625 3.0625 -1 1 C-0.67 0.67 -0.34 0.34 0 0 Z " fill="#A3D4D2" transform="translate(72,151)"/>
<path d="M0 0 C1.11346788 2.80033839 1.03510273 3.90143703 0.00390625 6.796875 C-0.47175781 7.77140625 -0.94742188 8.7459375 -1.4375 9.75 C-1.91058594 10.73484375 -2.38367188 11.7196875 -2.87109375 12.734375 C-3.24363281 13.48203125 -3.61617187 14.2296875 -4 15 C-4.66 14.67 -5.32 14.34 -6 14 C-4.50829734 9.0276578 -2.39542583 4.58154261 0 0 Z " fill="#424242" transform="translate(190,130)"/>
<path d="M0 0 C0.66 0 1.32 0 2 0 C2.33 0.66 2.66 1.32 3 2 C3.99 1.67 4.98 1.34 6 1 C6 1.99 6 2.98 6 4 C5.34 4 4.68 4 4 4 C4 4.66 4 5.32 4 6 C2.68 6 1.36 6 0 6 C0 4.02 0 2.04 0 0 Z " fill="#A2C4E3" transform="translate(40,126)"/>
<path d="M0 0 C2.64 0 5.28 0 8 0 C7.67 1.32 7.34 2.64 7 4 C4.69 4.33 2.38 4.66 0 5 C0.33 4.34 0.66 3.68 1 3 C0.67 2.67 0.34 2.34 0 2 C0 1.34 0 0.68 0 0 Z " fill="#7AC1B8" transform="translate(113,68)"/>
<path d="M0 0 C1.98 0.66 3.96 1.32 6 2 C6 2.99 6 3.98 6 5 C4 5 2 5 0 5 C0 3.35 0 1.7 0 0 Z " fill="#A4E2E2" transform="translate(132,127)"/>
<path d="M0 0 C1.98 0.495 1.98 0.495 4 1 C3.67 2.98 3.34 4.96 3 7 C1.68 6.01 0.36 5.02 -1 4 C-0.67 2.68 -0.34 1.36 0 0 Z " fill="#B3BEBF" transform="translate(61,48)"/>
<path d="M0 0 C0.99 0 1.98 0 3 0 C3 1.98 3 3.96 3 6 C4.32 6 5.64 6 7 6 C7 6.99 7 7.98 7 9 C5.35 9 3.7 9 2 9 C2 6.36 2 3.72 2 1 C1.34 0.67 0.68 0.34 0 0 Z " fill="#4C5152" transform="translate(98,92)"/>
<path d="M0 0 C2.125 0.375 2.125 0.375 4 1 C3.01 1.495 3.01 1.495 2 2 C2.33 3.32 2.66 4.64 3 6 C0.03 5.505 0.03 5.505 -3 5 C-2 2 -2 2 0 0 Z " fill="#57B2A6" transform="translate(161,67)"/>
<path d="M0 0 C3.63 0 7.26 0 11 0 C10.67 1.65 10.34 3.3 10 5 C9.01 4.34 8.02 3.68 7 3 C7 2.34 7 1.68 7 1 C4.69 1 2.38 1 0 1 C0 0.67 0 0.34 0 0 Z " fill="#DBE9E9" transform="translate(56,45)"/>
<path d="M0 0 C0.33 0.66 0.66 1.32 1 2 C1.66 2.33 2.32 2.66 3 3 C2.34 3 1.68 3 1 3 C1 4.98 1 6.96 1 9 C1.66 9.33 2.32 9.66 3 10 C1.68 9.67 0.36 9.34 -1 9 C-1.09765625 2.84765625 -1.09765625 2.84765625 -1 1 C-0.67 0.67 -0.34 0.34 0 0 Z " fill="#D6D9D9" transform="translate(127,94)"/>
<path d="M0 0 C1.2065625 0.0309375 1.2065625 0.0309375 2.4375 0.0625 C2.7675 1.3825 3.0975 2.7025 3.4375 4.0625 C1.7875 4.0625 0.1375 4.0625 -1.5625 4.0625 C-1.5625 3.4025 -1.5625 2.7425 -1.5625 2.0625 C-2.2225 1.7325 -2.8825 1.4025 -3.5625 1.0625 C-2.5625 0.0625 -2.5625 0.0625 0 0 Z " fill="#5A7A97" transform="translate(73.5625,162.9375)"/>
<path d="M0 0 C0.99 0.33 1.98 0.66 3 1 C3 2.32 3 3.64 3 5 C1.35 4.67 -0.3 4.34 -2 4 C-2 3.01 -2 2.02 -2 1 C-1.34 0.67 -0.68 0.34 0 0 Z " fill="#226E7A" transform="translate(73,137)"/>
<path d="M0 0 C0.33 1.32 0.66 2.64 1 4 C-1.60582371 4.93065133 -2.64198224 5.14917407 -5.25 4.0625 C-5.8275 3.711875 -6.405 3.36125 -7 3 C-6.34 2.67 -5.68 2.34 -5 2 C-4.34 2.33 -3.68 2.66 -3 3 C-3 2.34 -3 1.68 -3 1 C-2.01 0.67 -1.02 0.34 0 0 Z " fill="#75A8DB" transform="translate(81,128)"/>
<path d="M0 0 C0.66 0 1.32 0 2 0 C1.47731534 2.76276177 0.89130413 5.3260876 0 8 C-0.99 8 -1.98 8 -3 8 C-2.37240135 5.07120629 -1.41377341 2.63904371 0 0 Z " fill="#C2C6C8" transform="translate(140,96)"/>
<path d="M0 0 C1.98 0.495 1.98 0.495 4 1 C4 1.66 4 2.32 4 3 C4.66 3.33 5.32 3.66 6 4 C3.69 4 1.38 4 -1 4 C-0.67 2.68 -0.34 1.36 0 0 Z " fill="#719DAB" transform="translate(53,140)"/>
<path d="M0 0 C0.99 0 1.98 0 3 0 C3 1.65 3 3.3 3 5 C1.68 5 0.36 5 -1 5 C-0.67 3.35 -0.34 1.7 0 0 Z " fill="#1F6F75" transform="translate(53,163)"/>
</svg>
